<?xml version="1.0" encoding="UTF-8" standalone="no"?> <svg width="512" height="512" viewBox="0 0 512 512" fill="none" xmlns="http://www.w3.org/2000/svg">
<path d="M460.428 286.4C463.916 276.965 464.751 266.755 462.842 256.878C460.933 247.002 456.353 237.838 449.6 230.383C453.557 220.856 454.755 210.407 453.057 200.231C451.36 190.055 446.835 180.562 440 172.834V156.669C440 140.579 433.608 125.148 422.23 113.77C410.853 102.392 395.421 96.0005 379.331 96.0002H356.56C340.504 96.0182 325.111 102.404 313.757 113.758C302.404 125.111 296.018 140.504 296 156.56V207.652C296.013 220.411 301.064 232.648 310.053 241.702C319.042 250.756 331.242 255.895 344 256V265.66C341.164 266.187 338.357 266.853 335.584 267.627C329.561 261.376 322.332 256.412 314.334 253.039C306.336 249.665 297.735 247.951 289.055 248H284.555C275.284 248.003 266.137 250.137 257.822 254.237C249.507 258.337 242.246 264.295 236.6 271.648C235 271.125 233.4 270.634 231.788 270.195C231.788 270.195 208.348 264 208.002 264V247.366C214.943 245.13 221 240.76 225.31 234.878C229.62 228.996 231.962 221.903 232.002 214.611V150.7C237.074 148.741 241.6 145.591 245.199 141.515C248.797 137.438 251.362 132.556 252.676 127.28L253.084 125.651C254.195 121.194 254.365 116.553 253.582 112.027C252.799 107.5 251.08 103.186 248.536 99.3612L248.327 99.0472C244.607 93.4298 239.296 89.0496 233.073 86.4666C226.85 83.8837 219.999 83.2154 213.394 84.5472L195.066 88.2142C192.5 88.7267 189.89 88.985 187.273 88.9852H183.04C179.654 88.9823 176.315 88.195 173.285 86.6852L171.24 85.6632C162.181 81.1341 152.024 79.265 141.947 80.2725C131.869 81.28 122.283 85.1229 114.301 91.3556C106.318 97.5884 100.265 105.956 96.8431 115.488C93.4214 125.021 92.7713 135.327 94.968 145.214L104.045 186.059C104.262 190.83 105.896 195.428 108.738 199.267C111.579 203.105 115.5 206.01 120 207.611V264C120 264 111.312 264.025 110.974 264.068C110.867 264.082 88.215 270.195 88.215 270.195C67.492 275.884 49.2068 288.212 36.1627 305.29C23.1186 322.368 16.0357 343.253 16 364.742V488C16 490.122 16.8429 492.157 18.3431 493.657C19.8434 495.157 21.8783 496 24 496H488C490.122 496 492.157 495.157 493.657 493.657C495.157 492.157 496 490.122 496 488V362C496.019 347.554 492.839 333.284 486.689 320.212C480.539 307.141 471.57 295.594 460.428 286.4ZM356.56 112H379.331C385.197 112 391.006 113.156 396.425 115.4C401.845 117.645 406.769 120.936 410.917 125.083C415.065 129.231 418.355 134.156 420.6 139.575C422.845 144.995 424 150.803 424 156.669V176C424 177.051 424.207 178.091 424.609 179.062C425.011 180.032 425.6 180.914 426.343 181.657C432.151 187.454 435.985 194.934 437.299 203.034C438.614 211.134 437.343 219.443 433.666 226.779L432.845 228.421C432.094 229.923 431.835 231.623 432.104 233.281C432.373 234.938 433.157 236.469 434.345 237.656L436.388 239.7C441.17 244.478 444.63 250.416 446.427 256.932C448.225 263.449 448.299 270.32 446.643 276.874C437.132 271.438 426.773 267.644 416 265.654V230.629C421.339 228.743 425.839 225.03 428.704 220.146C431.57 215.262 432.616 209.523 431.659 203.942C430.701 198.361 427.802 193.299 423.472 189.649C419.143 186 413.662 183.999 408 184C403.758 183.995 399.691 182.308 396.692 179.308C393.692 176.309 392.005 172.242 392 168V144C392 142.552 391.607 141.131 390.863 139.889C390.119 138.647 389.051 137.63 387.775 136.947C386.498 136.264 385.06 135.94 383.613 136.01C382.167 136.08 380.767 136.541 379.562 137.344C365.234 146.916 348.386 152.017 331.155 152H312.232C313.374 141.034 318.535 130.88 326.72 123.494C334.905 116.108 345.535 112.013 356.56 112ZM312 207.652V168H331.155C346.684 168.015 362.015 164.515 376 157.763V168C376.01 176.484 379.384 184.618 385.383 190.617C391.382 196.616 399.516 199.991 408 200C410.122 200 412.157 200.843 413.657 202.343C415.157 203.844 416 205.878 416 208C416 210.122 415.157 212.157 413.657 213.657C412.157 215.157 410.122 216 408 216C405.878 216 403.843 216.843 402.343 218.343C400.843 219.844 400 221.878 400 224V264.556H360V256H368C370.122 256 372.157 255.157 373.657 253.657C375.157 252.157 376 250.122 376 248C376 245.878 375.157 243.844 373.657 242.343C372.157 240.843 370.122 240 368 240H344.348C335.772 239.991 327.549 236.58 321.485 230.515C315.421 224.451 312.01 216.228 312 207.652V207.652ZM320 360C317.878 360 315.843 360.843 314.343 362.343C312.843 363.844 312 365.878 312 368V408H280.176L280.346 400.174C280.369 399.109 280.179 398.05 279.788 397.059C279.396 396.068 278.81 395.166 278.065 394.405C277.32 393.643 276.43 393.038 275.448 392.625C274.466 392.212 273.411 392 272.346 392C263.77 391.99 255.548 388.579 249.484 382.514C243.42 376.45 240.01 368.228 240 359.652V320H259.155C274.684 320.015 290.015 316.515 304 309.763V320C304.009 327.093 306.37 333.982 310.713 339.589C315.056 345.196 321.135 349.205 328 350.988V352C327.998 354.121 327.154 356.155 325.654 357.654C324.154 359.154 322.121 359.998 320 360ZM284.56 264H289.06C296.808 264 304.446 265.842 311.343 269.372C318.24 272.903 324.2 278.023 328.73 284.309C333.261 290.594 336.232 297.867 337.401 305.527C338.569 313.187 337.901 321.014 335.45 328.365L333 335.708C329.346 335.007 326.051 333.055 323.679 330.189C321.307 327.323 320.006 323.721 320 320V296C320 294.552 319.607 293.131 318.863 291.889C318.119 290.647 317.051 289.63 315.775 288.947C314.498 288.264 313.06 287.94 311.613 288.01C310.167 288.08 308.767 288.541 307.562 289.344C293.234 298.916 276.386 304.017 259.155 304H240.232C241.374 293.034 246.535 282.88 254.72 275.494C262.905 268.108 273.535 264.013 284.56 264V264ZM196.184 280L187.8 300.957L163.577 288.845C162.466 288.29 161.241 288 159.999 288C158.757 288 157.532 288.29 156.421 288.845L132.2 300.957L123.816 280H196.184ZM126.427 102.312C131.943 98.6453 138.329 96.4978 144.94 96.0863C151.552 95.6748 158.154 97.0137 164.083 99.9682L166.127 100.99C171.38 103.609 177.168 104.975 183.038 104.982H187.271C190.941 104.981 194.601 104.619 198.2 103.9L216.53 100.232C220.024 99.5306 223.648 99.8867 226.939 101.255C230.229 102.623 233.037 104.941 235.004 107.913L235.213 108.228C236.524 110.198 237.409 112.419 237.814 114.75C238.218 117.081 238.131 119.47 237.56 121.766L237.151 123.395C236.184 127.278 233.946 130.725 230.793 133.187C227.639 135.65 223.752 136.986 219.751 136.982H207.88C193.121 136.993 178.497 134.176 164.799 128.682L146.971 121.55C145.757 121.065 144.442 120.884 143.142 121.024C141.842 121.164 140.596 121.621 139.513 122.355C138.431 123.088 137.544 124.076 136.932 125.231C136.319 126.387 135.999 127.674 136 128.982V160.982H128C123.638 160.977 119.359 162.168 115.627 164.426L110.585 141.738C108.974 134.336 109.622 126.62 112.447 119.59C115.271 112.561 120.142 106.542 126.427 102.312V102.312ZM128 192.982C125.878 192.982 123.843 192.139 122.343 190.639C120.843 189.139 120 187.104 120 184.982C120 182.86 120.843 180.826 122.343 179.325C123.843 177.825 125.878 176.982 128 176.982H144C146.122 176.982 148.157 176.139 149.657 174.639C151.157 173.139 152 171.104 152 168.982V140.8L158.856 143.543C174.444 149.794 191.086 152.999 207.88 152.984H216V214.613C215.978 219.21 214.241 223.633 211.131 227.017C208.02 230.402 203.759 232.504 199.18 232.913C199.031 232.925 198.891 232.964 198.744 232.984H176C173.878 232.984 171.843 233.827 170.343 235.327C168.843 236.828 168 238.862 168 240.984C168 243.106 168.843 245.141 170.343 246.641C171.843 248.141 173.878 248.984 176 248.984H192V264H136V200.982C136 198.86 135.157 196.826 133.657 195.325C132.157 193.825 130.122 192.982 128 192.982ZM32 364.742C32.03 346.761 37.9564 329.286 48.8706 314.997C59.7849 300.707 75.0846 290.391 92.424 285.631L107.224 281.595L120.574 314.971C120.985 315.999 121.605 316.93 122.394 317.705C123.183 318.481 124.125 319.085 125.159 319.478C126.193 319.871 127.298 320.045 128.403 319.99C129.509 319.934 130.59 319.65 131.58 319.155L160 304.944L188.422 319.155C189.412 319.65 190.493 319.934 191.599 319.99C192.704 320.045 193.809 319.871 194.843 319.478C195.877 319.085 196.819 318.481 197.608 317.705C198.397 316.93 199.017 315.999 199.428 314.971L212.778 281.595L227.578 285.631C227.862 285.709 228.143 285.796 228.426 285.876C225.5 293.081 223.997 300.784 224 308.56V359.652C224 359.769 224.007 359.884 224.008 360H192C189.878 360 187.843 360.843 186.343 362.343C184.843 363.844 184 365.878 184 368C184 370.122 184.843 372.157 186.343 373.657C187.843 375.157 189.878 376 192 376H226.855C229.762 384.049 234.747 391.185 241.304 396.684C247.86 402.183 255.755 405.85 264.187 407.311L264.134 409.72L260.388 410.657C244.461 414.621 230.149 423.411 219.413 435.825C208.676 448.239 202.04 463.668 200.414 480H88V376C88 373.878 87.1571 371.844 85.6569 370.343C84.1566 368.843 82.1217 368 80 368C77.8783 368 75.8434 368.843 74.3431 370.343C72.8429 371.844 72 373.878 72 376V480H32V364.742ZM352 480V464C352 461.878 351.157 459.844 349.657 458.343C348.157 456.843 346.122 456 344 456C341.878 456 339.843 456.843 338.343 458.343C336.843 459.844 336 461.878 336 464V480H256V464C256 461.878 255.157 459.844 253.657 458.343C252.157 456.843 250.122 456 248 456C245.878 456 243.843 456.843 242.343 458.343C240.843 459.844 240 461.878 240 464V480H216.5C218.099 467.256 223.519 455.293 232.045 445.687C240.572 436.081 251.806 429.28 264.271 426.179L272.984 424H319.016L327.731 426.179C340.195 429.28 351.429 436.081 359.956 445.687C368.482 455.294 373.901 467.256 375.5 480H352ZM391.586 480C389.959 463.668 383.323 448.239 372.587 435.825C361.851 423.412 347.539 414.621 331.612 410.657L328 409.757V374.629C332.436 373.052 336.312 370.206 339.146 366.446C341.98 362.685 343.647 358.176 343.941 353.476L350.625 333.424C353.51 324.936 354.583 315.936 353.773 307.008C352.963 298.079 350.29 289.419 345.925 281.588C348.099 281.155 350.289 280.811 352.495 280.556H407.486C421.106 282.102 434.117 287.054 445.317 294.956C445.761 295.369 446.251 295.729 446.777 296.03C457.096 303.655 465.478 313.598 471.249 325.057C477.02 336.516 480.017 349.17 480 362V368H455.723C454.713 358.153 450.345 348.953 443.351 341.947L441.771 340.368L440.162 323.987C439.954 321.876 438.917 319.933 437.277 318.586C435.637 317.24 433.529 316.6 431.418 316.808C429.306 317.015 427.363 318.053 426.017 319.693C424.67 321.333 424.03 323.441 424.238 325.552L426.128 344.782C426.309 346.625 427.124 348.348 428.434 349.657L432.034 353.257C436.466 357.707 439.225 363.552 439.844 369.802C440.464 376.051 438.906 382.324 435.434 387.557C434.557 388.873 434.089 390.419 434.09 392V480H391.586ZM450.086 480V394.288C451.972 391.062 453.428 387.604 454.417 384H480V480H450.086ZM255.516 78.3102L280.275 94.8162C281.589 95.6922 283.133 96.1597 284.712 96.1597C286.292 96.1597 287.836 95.6922 289.15 94.8162L313.91 78.3102C320.317 74.0261 324.943 67.5534 326.921 60.104C328.9 52.6547 328.095 44.7397 324.657 37.8412C322.89 34.3112 320.313 31.2487 317.138 28.9032C313.963 26.5576 310.278 24.9954 306.385 24.3438C302.491 23.6921 298.499 23.9696 294.733 25.1534C290.966 26.3372 287.533 28.394 284.713 31.1562C281.893 28.3942 278.46 26.3375 274.694 25.1537C270.928 23.97 266.935 23.6925 263.042 24.344C259.148 24.9955 255.464 26.5576 252.288 28.9029C249.113 31.2482 246.537 34.3105 244.769 37.8402C241.331 44.7388 240.526 52.654 242.504 60.1036C244.482 67.5532 249.108 74.0261 255.516 78.3102V78.3102ZM259.079 45.0002C259.83 43.4988 260.983 42.2362 262.411 41.3537C263.839 40.4712 265.484 40.0038 267.163 40.0038C268.842 40.0038 270.487 40.4712 271.915 41.3537C273.343 42.2362 274.496 43.4988 275.247 45.0002L277.558 49.6212C278.223 50.9498 279.244 52.0672 280.508 52.8481C281.771 53.629 283.227 54.0426 284.713 54.0426C286.199 54.0426 287.655 53.629 288.918 52.8481C290.182 52.0672 291.204 50.9498 291.868 49.6212L294.179 45.0002C294.93 43.4988 296.083 42.2362 297.511 41.3537C298.939 40.4712 300.584 40.0038 302.263 40.0038C303.942 40.0038 305.587 40.4712 307.015 41.3537C308.443 42.2362 309.596 43.4988 310.347 45.0002C312.045 48.4096 312.443 52.3212 311.465 56.0026C310.487 59.684 308.201 62.8828 305.035 65.0002L284.713 78.5452L264.391 65.0002C261.225 62.8827 258.939 59.6838 257.961 56.0025C256.983 52.3212 257.381 48.4097 259.079 45.0002V45.0002ZM161 170.982C161 169.598 161.411 168.244 162.18 167.093C162.949 165.942 164.042 165.045 165.321 164.515C166.6 163.985 168.008 163.847 169.366 164.117C170.723 164.387 171.971 165.053 172.95 166.032C173.929 167.011 174.595 168.259 174.865 169.617C175.136 170.974 174.997 172.382 174.467 173.661C173.937 174.94 173.04 176.033 171.889 176.802C170.738 177.572 169.384 177.982 168 177.982C166.143 177.982 164.363 177.245 163.05 175.932C161.737 174.619 161 172.839 161 170.982V170.982ZM194 170.982C194 169.598 194.411 168.244 195.18 167.093C195.949 165.942 197.042 165.045 198.321 164.515C199.6 163.985 201.008 163.847 202.366 164.117C203.723 164.387 204.971 165.053 205.95 166.032C206.929 167.011 207.595 168.259 207.865 169.617C208.136 170.974 207.997 172.382 207.467 173.661C206.937 174.94 206.04 176.033 204.889 176.802C203.738 177.572 202.384 177.982 201 177.982C199.143 177.982 197.363 177.245 196.05 175.932C194.737 174.619 194 172.839 194 170.982ZM355 186C355 184.616 355.411 183.262 356.18 182.111C356.949 180.96 358.042 180.063 359.321 179.533C360.6 179.003 362.008 178.865 363.366 179.135C364.723 179.405 365.971 180.071 366.95 181.05C367.929 182.029 368.595 183.277 368.866 184.635C369.136 185.992 368.997 187.4 368.467 188.679C367.937 189.958 367.04 191.051 365.889 191.82C364.738 192.59 363.384 193 362 193C360.143 193 358.363 192.263 357.05 190.95C355.738 189.637 355 187.857 355 186ZM337 186C337 187.385 336.589 188.738 335.82 189.889C335.051 191.04 333.958 191.938 332.679 192.467C331.4 192.997 329.992 193.136 328.634 192.866C327.277 192.596 326.029 191.929 325.05 190.95C324.071 189.971 323.405 188.724 323.134 187.366C322.864 186.008 323.003 184.6 323.533 183.321C324.063 182.042 324.96 180.949 326.111 180.18C327.262 179.411 328.616 179 330 179C331.857 179 333.637 179.738 334.95 181.05C336.262 182.363 337 184.144 337 186ZM176.648 204.621C176.235 203.655 176.017 202.617 176.006 201.566C175.994 200.516 176.19 199.473 176.582 198.499C176.973 197.524 177.553 196.635 178.288 195.884C179.022 195.134 179.898 194.535 180.864 194.122C181.83 193.71 182.868 193.491 183.919 193.48C184.969 193.469 186.012 193.664 186.987 194.056C187.962 194.447 188.85 195.027 189.601 195.762C190.352 196.496 190.95 197.372 191.363 198.338C191.691 199.105 192.233 199.76 192.925 200.225C193.618 200.689 194.429 200.943 195.263 200.956L197.109 200.983C199.231 200.998 201.26 201.856 202.749 203.367C204.239 204.878 205.067 206.918 205.052 209.04C205.037 211.162 204.18 213.191 202.669 214.68C201.158 216.17 199.117 216.998 196.995 216.983H196.877L195.028 216.956C191.1 216.896 187.274 215.699 184.012 213.51C180.75 211.321 178.192 208.233 176.648 204.621V204.621ZM345.009 229.5C343.958 229.508 342.917 229.308 341.943 228.913C340.97 228.518 340.084 227.935 339.335 227.197C338.587 226.46 337.992 225.582 337.583 224.614C337.174 223.647 336.959 222.608 336.952 221.557C336.945 220.507 337.144 219.465 337.539 218.491C337.934 217.518 338.517 216.632 339.255 215.884C339.992 215.135 340.87 214.54 341.838 214.131C342.806 213.722 343.844 213.508 344.895 213.5L346.743 213.474C347.576 213.461 348.388 213.207 349.08 212.742C349.772 212.277 350.315 211.622 350.643 210.856C351.047 209.878 351.642 208.99 352.392 208.243C353.141 207.496 354.032 206.905 355.012 206.505C355.992 206.105 357.041 205.903 358.1 205.912C359.158 205.92 360.204 206.138 361.178 206.554C362.151 206.97 363.032 207.574 363.771 208.333C364.509 209.091 365.089 209.989 365.478 210.973C365.866 211.958 366.056 213.01 366.035 214.068C366.014 215.126 365.784 216.17 365.357 217.138C363.813 220.75 361.255 223.837 357.993 226.026C354.732 228.215 350.906 229.412 346.978 229.472L345.127 229.498L345.009 229.5ZM297 338C297 339.385 296.589 340.738 295.82 341.889C295.051 343.04 293.958 343.938 292.679 344.467C291.4 344.997 289.992 345.136 288.634 344.866C287.277 344.596 286.029 343.929 285.05 342.95C284.071 341.971 283.405 340.724 283.134 339.366C282.864 338.008 283.003 336.6 283.533 335.321C284.063 334.042 284.96 332.949 286.111 332.18C287.262 331.411 288.616 331 290 331C291.857 331 293.637 331.738 294.95 333.05C296.262 334.363 297 336.144 297 338V338ZM265 338C265 339.385 264.589 340.738 263.82 341.889C263.051 343.04 261.958 343.938 260.679 344.467C259.4 344.997 257.992 345.136 256.634 344.866C255.277 344.596 254.029 343.929 253.05 342.95C252.071 341.971 251.405 340.724 251.135 339.366C250.864 338.008 251.003 336.6 251.533 335.321C252.063 334.042 252.96 332.949 254.111 332.18C255.262 331.411 256.616 331 258 331C259.857 331 261.637 331.738 262.95 333.05C264.262 334.363 265 336.144 265 338V338ZM293.357 369.141C291.813 372.753 289.255 375.84 285.993 378.029C282.732 380.218 278.906 381.415 274.978 381.475L273.127 381.501H273.009C270.887 381.516 268.846 380.688 267.335 379.198C265.824 377.709 264.967 375.68 264.952 373.558C264.937 371.436 265.765 369.396 267.255 367.885C268.744 366.374 270.773 365.516 272.895 365.501L274.743 365.475C275.576 365.462 276.388 365.208 277.08 364.743C277.772 364.278 278.315 363.623 278.643 362.857C279.047 361.879 279.642 360.991 280.392 360.244C281.141 359.497 282.032 358.906 283.012 358.506C283.992 358.106 285.041 357.904 286.1 357.913C287.158 357.921 288.204 358.139 289.178 358.555C290.151 358.971 291.032 359.575 291.771 360.334C292.509 361.092 293.089 361.99 293.478 362.974C293.866 363.959 294.056 365.011 294.035 366.069C294.014 367.127 293.784 368.171 293.357 369.139V369.141Z" fill="url(#paint0_linear_13_32895)"/>
<defs>
<linearGradient id="paint0_linear_13_32895" x1="60.448" y1="535.762" x2="452.334" y2="143.875" gradientUnits="userSpaceOnUse">
<stop stop-color="#41DFD0"/>
<stop offset="1" stop-color="#EE83EF"/>
</linearGradient>
</defs>
</svg>
