<svg width="512" height="512" viewBox="0 0 512 512" fill="none" xmlns="http://www.w3.org/2000/svg"><path d="M460.428 286.4a55.024 55.024 0 0 0-10.828-56.017 55.013 55.013 0 0 0-9.6-57.549v-16.165A60.668 60.668 0 0 0 379.331 96H356.56A60.628 60.628 0 0 0 296 156.56v51.092A48.398 48.398 0 0 0 344 256v9.66a97.748 97.748 0 0 0-8.416 1.967A64.1 64.1 0 0 0 289.055 248h-4.5a60.481 60.481 0 0 0-47.955 23.648c-1.6-.523-3.2-1.014-4.812-1.453 0 0-23.44-6.195-23.786-6.195v-16.634a34.614 34.614 0 0 0 24-32.755V150.7a33.892 33.892 0 0 0 20.674-23.42l.408-1.629a33.044 33.044 0 0 0-4.548-26.29l-.209-.314a33.868 33.868 0 0 0-34.933-14.5l-18.328 3.667a39.749 39.749 0 0 1-7.793.771h-4.233a21.915 21.915 0 0 1-9.755-2.3l-2.045-1.022a53.586 53.586 0 0 0-76.272 59.551l9.077 40.845A24.034 24.034 0 0 0 120 207.611V264s-8.688.025-9.026.068c-.107.014-22.759 6.127-22.759 6.127A98.215 98.215 0 0 0 16 364.742V488a8 8 0 0 0 8 8h464a8 8 0 0 0 8-8V362a97.856 97.856 0 0 0-35.572-75.6ZM356.56 112h22.771a44.682 44.682 0 0 1 31.586 13.083A44.678 44.678 0 0 1 424 156.669V176a8.003 8.003 0 0 0 2.343 5.657 39.035 39.035 0 0 1 7.323 45.122l-.821 1.642a8.001 8.001 0 0 0 1.5 9.235l2.043 2.044a39.03 39.03 0 0 1 10.255 37.174A97.412 97.412 0 0 0 416 265.654v-35.025A24 24 0 0 0 408 184a16.016 16.016 0 0 1-16-16v-24a8 8 0 0 0-12.438-6.656A86.986 86.986 0 0 1 331.155 152h-18.923a44.621 44.621 0 0 1 44.328-40ZM312 207.652V168h19.155A102.915 102.915 0 0 0 376 157.763V168a32.038 32.038 0 0 0 32 32 8 8 0 1 1 0 16 8 8 0 0 0-8 8v40.556h-40V256h8a8 8 0 1 0 0-16h-23.652A32.387 32.387 0 0 1 312 207.652ZM320 360a8 8 0 0 0-8 8v40h-31.824l.17-7.826a8 8 0 0 0-8-8.174A32.382 32.382 0 0 1 240 359.652V320h19.155A102.915 102.915 0 0 0 304 309.763V320a32.055 32.055 0 0 0 24 30.988V352a8.007 8.007 0 0 1-8 8Zm-35.44-96h4.5a48.9 48.9 0 0 1 46.39 64.365l-2.45 7.343A16.017 16.017 0 0 1 320 320v-24a8 8 0 0 0-12.438-6.656A86.986 86.986 0 0 1 259.155 304h-18.923a44.621 44.621 0 0 1 44.328-40Zm-88.376 16-8.384 20.957-24.223-12.112a8.008 8.008 0 0 0-7.156 0L132.2 300.957 123.816 280h72.368Zm-69.757-177.688a37.67 37.67 0 0 1 37.656-2.344l2.044 1.022a38 38 0 0 0 16.911 3.992h4.233c3.67-.001 7.33-.363 10.929-1.082l18.33-3.668a17.924 17.924 0 0 1 18.474 7.681l.209.315a17.023 17.023 0 0 1 2.347 13.538l-.409 1.629a17.915 17.915 0 0 1-17.4 13.587H207.88a115.497 115.497 0 0 1-43.081-8.3l-17.828-7.132a7.994 7.994 0 0 0-10.039 3.681 7.991 7.991 0 0 0-.932 3.751v32h-8a23.847 23.847 0 0 0-12.373 3.444l-5.042-22.688a37.825 37.825 0 0 1 15.842-39.426Zm1.573 90.67a8 8 0 1 1 0-16h16a8 8 0 0 0 8-8V140.8l6.856 2.743a131.4 131.4 0 0 0 49.024 9.441H216v61.629a18.462 18.462 0 0 1-16.82 18.3c-.149.012-.289.051-.436.071H176a8 8 0 1 0 0 16h16V264h-56v-63.018a8.002 8.002 0 0 0-8-8Zm-96 171.76a82.178 82.178 0 0 1 60.424-79.111l14.8-4.036 13.35 33.376a7.99 7.99 0 0 0 4.585 4.507 8.011 8.011 0 0 0 6.421-.323L160 304.944l28.422 14.211a8.007 8.007 0 0 0 6.421.323 7.995 7.995 0 0 0 4.585-4.507l13.35-33.376 14.8 4.036c.284.078.565.165.848.245A60.225 60.225 0 0 0 224 308.56v51.092c0 .117.007.232.008.348H192a8 8 0 1 0 0 16h34.855a48.493 48.493 0 0 0 37.332 31.311l-.053 2.409-3.746.937A79.583 79.583 0 0 0 200.414 480H88V376a8.001 8.001 0 0 0-13.657-5.657A8.001 8.001 0 0 0 72 376v104H32V364.742ZM352 480v-16a8.002 8.002 0 0 0-8-8 8 8 0 0 0-8 8v16h-80v-16a8.002 8.002 0 0 0-8-8 8 8 0 0 0-8 8v16h-23.5a63.626 63.626 0 0 1 47.771-53.821l8.713-2.179h46.032l8.715 2.179A63.628 63.628 0 0 1 375.5 480H352Zm39.586 0a79.59 79.59 0 0 0-59.974-69.343l-3.612-.9v-35.128a24.044 24.044 0 0 0 15.941-21.153l6.684-20.052a64.094 64.094 0 0 0-4.7-51.836 81.574 81.574 0 0 1 6.57-1.032h54.991a81.583 81.583 0 0 1 37.831 14.4c.444.413.934.773 1.46 1.074A81.89 81.89 0 0 1 480 362v6h-24.277a43.1 43.1 0 0 0-12.372-26.053l-1.58-1.579-1.609-16.381a8 8 0 0 0-15.924 1.565l1.89 19.23a7.996 7.996 0 0 0 2.306 4.875l3.6 3.6a27.253 27.253 0 0 1 3.4 34.3A8.003 8.003 0 0 0 434.09 392v88h-42.504Zm58.5 0v-85.712A42.851 42.851 0 0 0 454.417 384H480v96h-29.914ZM255.516 78.31l24.759 16.506a8 8 0 0 0 8.875 0l24.76-16.506a31.683 31.683 0 0 0 10.747-40.469 25.06 25.06 0 0 0-39.944-6.685 25.057 25.057 0 0 0-21.671-6.812 25.065 25.065 0 0 0-18.273 13.496 31.684 31.684 0 0 0 10.747 40.47ZM259.079 45a9.039 9.039 0 0 1 16.168 0l2.311 4.621a8.003 8.003 0 0 0 11.36 3.227 7.996 7.996 0 0 0 2.95-3.227l2.311-4.62a9.039 9.039 0 0 1 16.168 0 15.66 15.66 0 0 1-5.312 20l-20.322 13.544L264.391 65a15.663 15.663 0 0 1-5.312-20ZM161 170.982a7.002 7.002 0 0 1 8.366-6.865 7.001 7.001 0 0 1 5.101 9.544A7 7 0 0 1 161 170.982Zm33 0a7.002 7.002 0 0 1 8.366-6.865 7.001 7.001 0 0 1 5.101 9.544A7 7 0 0 1 194 170.982ZM355 186a7.002 7.002 0 0 1 8.366-6.865 7.001 7.001 0 0 1 5.101 9.544A7 7 0 0 1 355 186Zm-18 0a7 7 0 1 1-14 0 7 7 0 0 1 14 0Zm-160.352 18.621a7.983 7.983 0 0 1-.066-6.122 7.993 7.993 0 0 1 7.337-5.019 8 8 0 0 1 7.444 4.858c.328.767.87 1.422 1.562 1.887a4.322 4.322 0 0 0 2.338.731l1.846.027a7.998 7.998 0 0 1 7.943 8.057 7.997 7.997 0 0 1-8.057 7.943h-.118l-1.849-.027a20.326 20.326 0 0 1-18.38-12.335ZM345.009 229.5a7.994 7.994 0 0 1-7.426-4.886 7.985 7.985 0 0 1-.044-6.123 7.992 7.992 0 0 1 4.299-4.36 8.008 8.008 0 0 1 3.057-.631l1.848-.026a4.311 4.311 0 0 0 3.9-2.618 8 8 0 1 1 14.714 6.282 20.325 20.325 0 0 1-18.379 12.334l-1.851.026-.118.002ZM297 338a7 7 0 1 1-14 0 7 7 0 0 1 14 0Zm-32 0a7 7 0 1 1-14 0 7 7 0 0 1 14 0Zm28.357 31.141a20.325 20.325 0 0 1-18.379 12.334l-1.851.026h-.118a8 8 0 1 1-.114-16l1.848-.026a4.311 4.311 0 0 0 3.9-2.618 8 8 0 1 1 14.714 6.282v.002Z" fill="url(#a)"/><defs><linearGradient id="a" x1="60.448" y1="535.762" x2="452.334" y2="143.875" gradientUnits="userSpaceOnUse"><stop stop-color="#41DFD0"/><stop offset="1" stop-color="#EE83EF"/></linearGradient></defs></svg>